<?xml version="1.0" encoding="UTF-8"?>
<svg id="Layer_1" data-name="Layer 1" xmlns="http://www.w3.org/2000/svg" viewBox="0 0 1000 1000">
  <defs>
    <style>
      .cls-1 {
        fill: #fff;
      }
    </style>
  </defs>
  <rect class="cls-1" width="1000" height="1000"/>
  <g>
    <g>
      <g>
        <path d="M346.28,513.34c0,6.49-5.12,8.81-10.29,13.69v-27.38c4.66,4.09,10.29,7.2,10.29,13.69Z"/>
        <path d="M353.72,503.61c-6.49,0-8.81-5.12-13.69-10.29h27.38c-4.09,4.66-7.2,10.29-13.69,10.29Z"/>
        <path d="M335.98,490.65c0-5.94-.03-10.05,0-12.84.04-4.14,2.56-5.22,9.48-5.1h25.42c-.2,7.52-2.35,11.4-8.84,11.4h-16.27c-9.29.02-9.8,6.55-9.8,6.55Z"/>
      </g>
      <path d="M329.11,527.3s0,0,0,0h-11.24c-1.38,0-2.49-1.12-2.49-2.49v-24.68c0-.86-.08-1.71-.24-2.53-.67-3.54-2.73-6.59-5.6-8.55-2.16-1.48-4.77-2.35-7.59-2.35-7.42,0-13.43,6.01-13.43,13.43s6.01,13.43,13.43,13.43c.76,0,1.51-.06,2.24-.19.97-.16,1.85.58,1.85,1.56v10.63c0,.83-.63,1.53-1.46,1.61-.46.05-.93.08-1.4.1-15.53.69-28.48-11.73-28.4-27.28.08-14.94,12.21-27.03,27.17-27.03,11.06,0,20.58,6.61,24.81,16.09,1.51,3.38,2.36,7.13,2.36,11.08v19.12s.06,6.9,3.62,8.02c.1.03-1.65.03-3.62.02Z"/>
    </g>
    <g>
      <path d="M384.45,494.24h-1.08c-3.02,0-5.77,1.77-7.01,4.53l-12.84,28.52s0,0,0,0h4.18c1.3,0,2.47-.77,2.98-1.97l2.43-5.68s0,0,0,0h16.53s0,0,0,0l2.44,5.68c.51,1.19,1.68,1.96,2.98,1.96h4.27s0,0,0,0l-14.92-33.05h0ZM375.2,514.82l5.59-13.07c.23-.53.97-.53,1.2,0l5.61,13.07s0,0,0,0h-12.39s0,0,0,0Z"/>
      <path d="M422.26,527.3c-2.58,0-5.05-.37-7.42-1.11s-4.24-1.69-5.62-2.86l.63-1.42c.75-1.68,2.73-2.38,4.4-1.58.63.3,1.3.57,2.01.83,1.95.69,3.95,1.04,6,1.04,1.73,0,3.13-.19,4.2-.57,1.07-.38,1.86-.89,2.36-1.54.5-.65.76-1.38.76-2.2,0-1.01-.36-1.82-1.09-2.43-.72-.61-1.66-1.1-2.81-1.46-1.15-.36-2.43-.7-3.83-1.02-1.4-.31-2.8-.68-4.2-1.11-1.4-.43-2.68-.98-3.83-1.65-1.15-.68-2.09-1.58-2.81-2.72-.72-1.13-1.09-2.58-1.09-4.35s.48-3.44,1.44-4.94c.96-1.49,2.42-2.69,4.39-3.59,1.97-.9,4.46-1.35,7.49-1.35,1.98,0,3.95.25,5.9.76,1.95.5,3.65,1.23,5.1,2.17l-.64,1.57c-.66,1.62-2.49,2.46-4.11,1.83-.58-.23-1.17-.42-1.77-.58-1.58-.43-3.09-.64-4.53-.64-1.7,0-3.08.21-4.13.61-1.06.41-1.83.95-2.31,1.61-.49.66-.73,1.42-.73,2.27,0,1.01.35,1.82,1.06,2.43.71.61,1.64,1.1,2.79,1.44,1.15.35,2.43.69,3.85,1.02,1.42.33,2.83.7,4.23,1.11,1.4.41,2.68.95,3.83,1.61,1.15.66,2.08,1.56,2.79,2.69.71,1.13,1.06,2.57,1.06,4.3s-.48,3.39-1.44,4.89c-.96,1.5-2.43,2.69-4.42,3.59-1.98.9-4.49,1.35-7.51,1.35Z"/>
      <path d="M456.43,527.3v-27.87h-7.72c-1.79,0-3.24-1.45-3.24-3.24v-1.95h28.06v1.95c0,1.79-1.45,3.24-3.24,3.24h-7.72v24.63c0,1.79-1.45,3.24-3.24,3.24h-2.9Z"/>
      <path d="M507.85,516.47c.16-.06.32-.12.49-.19,2.09-.93,3.71-2.27,4.84-4.01,1.14-1.75,1.69-3.84,1.69-6.26s-.56-4.52-1.69-6.28c-1.14-1.76-2.75-3.12-4.84-4.06-2.1-.94-4.61-1.42-7.54-1.42h-13.61v33.06h2.9c1.79,0,3.24-1.45,3.24-3.24v-6.39h7.46c.45,0,.88,0,1.3-.04l5.77,8.28c.61.87,1.6,1.39,2.66,1.39h4.91l-7.59-10.83ZM493.34,499.44h7.18c2.71,0,4.75.57,6.12,1.7,1.37,1.14,2.05,2.76,2.05,4.86s-.68,3.7-2.05,4.86c-1.37,1.17-3.41,1.74-6.12,1.74h-7.18v-13.18Z"/>
      <path d="M578.3,499.39v10.06h15.96v1.95c0,1.79-1.45,3.24-3.24,3.24h-12.72v9.41c0,1.79-1.45,3.24-3.24,3.24h-2.89v-33.06h24.14v1.91c0,1.79-1.45,3.24-3.24,3.24h-14.76Z"/>
      <path d="M622.48,527.3c-4.53,0-8.09-1.28-10.65-3.83-2.57-2.55-3.85-6.24-3.85-11.05v-18.66h2.9c1.79,0,3.24,1.45,3.24,3.24v15.18c0,3.4.73,5.87,2.2,7.42,1.46,1.54,3.53,2.32,6.21,2.32s4.74-.77,6.19-2.32c1.45-1.54,2.17-4.01,2.17-7.42v-15.18c0-1.79,1.45-3.24,3.24-3.24h2.8v18.66c0,4.82-1.28,8.5-3.85,11.05-2.57,2.55-6.1,3.83-10.61,3.83Z"/>
      <path d="M686.79,527.3h-5.81l-.04-21.89-10.87,18.11h-2.74l-10.86-17.85v21.62h-5.85v-33.06h3.21c1.14,0,2.2.6,2.78,1.58l12.18,20.34,11.96-20.32c.58-.99,1.65-1.6,2.79-1.6h3.21l.05,33.06Z"/>
      <path d="M725.23,525.4v1.91h-24.8v-33.06h24.14v1.91c0,1.79-1.45,3.24-3.24,3.24h-14.75v8.6h15.96v5.05h-15.96v9.11h15.41c1.79,0,3.24,1.45,3.24,3.24Z"/>
      <g>
        <path d="M557.51,507.55c-.73-1.71-1.76-3.2-3.1-4.47-1.33-1.26-2.89-2.25-4.68-2.96-1.39-.54-2.88-.88-4.48-1.01-.03,0-.06,0-.08,0-.47-.04-.95-.06-1.43-.06-.76,0-1.51.06-2.24.17-1.25.16-2.44.47-3.57.91-1.8.71-3.36,1.69-4.7,2.96-1.33,1.26-2.36,2.76-3.1,4.47-.73,1.71-1.09,3.58-1.09,5.63v.25c.02.93.11,1.82.28,2.68.04.22.09.43.14.64.02.11.06.24.1.35.04.17.09.34.15.5.1.29.2.58.32.87.04.11.07.23.12.33.74,1.71,1.77,3.2,3.1,4.47,1.34,1.26,2.9,2.25,4.7,2.96.41.15.81.29,1.23.41.28.08.56.15.85.23.07.02.15.04.24.05,1.09.25,2.25.38,3.43.38.25,0,.5,0,.75-.02.02,0,.05,0,.06,0,1.87-.06,3.61-.41,5.22-1.05,1.78-.71,3.35-1.69,4.68-2.94,1.34-1.25,2.37-2.74,3.1-4.47.25-.6.46-1.21.62-1.85.04-.13.07-.26.1-.4.04-.15.07-.31.11-.46.19-.85.28-1.74.28-2.64v-.29c0-2.04-.37-3.92-1.1-5.63ZM543.83,522.69c-5.25,0-9.52-4.26-9.52-9.52s4.26-9.52,9.52-9.52,9.53,4.26,9.53,9.52-4.26,9.52-9.53,9.52Z"/>
        <rect x="533.07" y="494.14" width="21.53" height="2.07"/>
      </g>
    </g>
  </g>
</svg>