<?xml version="1.0" encoding="UTF-8"?>
<svg id="Layer_1" data-name="Layer 1" xmlns="http://www.w3.org/2000/svg" viewBox="0 0 1000 1000">
  <defs>
    <style>
      .cls-1 {
        fill: #fff;
      }
    </style>
  </defs>
  <g>
    <g>
      <path class="cls-1" d="M546.74,476.88c0,19.54-15.41,26.51-30.96,41.2v-82.4c14.01,12.31,30.96,21.66,30.96,41.21Z"/>
      <path class="cls-1" d="M569.13,447.58c-19.54,0-26.51-15.41-41.2-30.96h82.4c-12.31,14.01-21.66,30.96-41.21,30.96Z"/>
      <path class="cls-1" d="M515.76,408.59c.02-17.88-.1-30.26-.02-38.65.12-12.45,7.71-15.71,28.54-15.36h76.51c-.6,22.62-7.07,34.3-26.6,34.31h-48.95c-27.95.07-29.48,19.7-29.48,19.7Z"/>
    </g>
    <path class="cls-1" d="M495.06,518.88s0,.01-.01.01h-33.83c-4.14,0-7.5-3.36-7.5-7.5v-74.27c0-2.6-.24-5.14-.72-7.61-2.02-10.65-8.23-19.82-16.85-25.73-6.5-4.47-14.37-7.08-22.85-7.08-22.33,0-40.42,18.1-40.42,40.42s18.09,40.42,40.42,40.42c2.3,0,4.55-.19,6.74-.56,2.92-.49,5.58,1.73,5.58,4.7v31.99c0,2.51-1.9,4.62-4.39,4.85-1.39.14-2.8.23-4.22.3-46.74,2.09-85.71-35.32-85.48-82.1.23-44.97,36.75-81.36,81.77-81.36,33.28,0,61.92,19.89,74.68,48.44,4.56,10.18,7.09,21.46,7.09,33.34v57.55s.18,20.77,10.9,24.15c.31.1-4.96.1-10.9.07Z"/>
  </g>
  <g>
    <path class="cls-1" d="M109.95,569.73h-2.46c-6.92,0-13.2,4.06-16.05,10.38l-29.39,65.31s0,.02.01.02h9.58c2.97,0,5.66-1.77,6.83-4.5l5.57-13s0,0,.01,0h37.85s.01,0,.01,0l5.58,13c1.17,2.73,3.85,4.5,6.82,4.5h9.79s.02-.01.01-.02l-34.17-75.68h-.01ZM88.77,616.87l12.81-29.92c.52-1.2,2.22-1.21,2.74,0l12.84,29.92s0,.02-.01.02h-28.36s-.02-.01-.01-.02Z"/>
    <path class="cls-1" d="M196.53,645.44c-5.91,0-11.57-.85-16.98-2.54-5.41-1.69-9.7-3.88-12.87-6.54l1.44-3.24c1.72-3.85,6.26-5.44,10.07-3.63,1.44.68,2.97,1.31,4.6,1.89,4.47,1.59,9.05,2.38,13.74,2.38,3.96,0,7.17-.43,9.63-1.3,2.45-.87,4.25-2.04,5.41-3.52,1.15-1.48,1.73-3.15,1.73-5.03,0-2.31-.83-4.16-2.49-5.57-1.66-1.41-3.8-2.52-6.44-3.35-2.63-.83-5.55-1.6-8.76-2.33-3.21-.72-6.42-1.57-9.63-2.54-3.21-.97-6.13-2.23-8.76-3.79-2.63-1.55-4.78-3.62-6.44-6.22-1.66-2.59-2.49-5.91-2.49-9.95s1.1-7.88,3.3-11.3c2.2-3.42,5.55-6.16,10.06-8.22,4.51-2.05,10.22-3.08,17.14-3.08,4.54,0,9.05.58,13.52,1.73,4.47,1.15,8.36,2.81,11.68,4.97l-1.46,3.59c-1.5,3.7-5.69,5.63-9.42,4.18-1.33-.52-2.69-.96-4.05-1.33-3.61-.97-7.07-1.46-10.38-1.46-3.89,0-7.05.47-9.46,1.41-2.42.94-4.18,2.16-5.3,3.68-1.12,1.51-1.68,3.24-1.68,5.19,0,2.31.81,4.17,2.43,5.57,1.62,1.41,3.75,2.51,6.38,3.3,2.63.8,5.57,1.57,8.82,2.33,3.24.76,6.47,1.61,9.68,2.54,3.21.94,6.13,2.16,8.76,3.68,2.63,1.51,4.76,3.57,6.38,6.16,1.62,2.6,2.43,5.88,2.43,9.84s-1.1,7.77-3.3,11.19c-2.2,3.43-5.57,6.16-10.11,8.22-4.54,2.05-10.28,3.08-17.2,3.08Z"/>
    <path class="cls-1" d="M274.77,645.44v-63.81h-17.67c-4.1,0-7.43-3.32-7.43-7.43v-4.47h64.25v4.47c0,4.1-3.32,7.43-7.43,7.43h-17.67v56.39c0,4.1-3.32,7.43-7.43,7.43h-6.63Z"/>
    <path class="cls-1" d="M392.51,620.64c.37-.13.74-.28,1.11-.45,4.79-2.13,8.48-5.2,11.08-9.19,2.6-4.01,3.88-8.78,3.88-14.33s-1.28-10.34-3.88-14.39c-2.6-4.03-6.29-7.15-11.08-9.3-4.81-2.15-10.55-3.25-17.27-3.25h-31.15v75.71h6.65c4.1,0,7.43-3.32,7.43-7.43v-14.63h17.08c1.02,0,2.01-.02,2.97-.09l13.21,18.97c1.39,1.99,3.66,3.18,6.09,3.18h11.25l-17.38-24.8ZM359.28,581.63h16.43c6.2,0,10.88,1.3,14.02,3.9,3.14,2.6,4.7,6.31,4.7,11.14s-1.56,8.47-4.7,11.14c-3.14,2.67-7.82,3.99-14.02,3.99h-16.43v-30.17Z"/>
    <path class="cls-1" d="M553.82,581.52v23.04h36.56v4.47c0,4.1-3.32,7.43-7.43,7.43h-29.13v21.55c0,4.1-3.32,7.43-7.43,7.43h-6.63v-75.71h55.27v4.36c0,4.1-3.32,7.43-7.43,7.43h-33.79Z"/>
    <path class="cls-1" d="M654.98,645.44c-10.38,0-18.51-2.92-24.39-8.76-5.88-5.84-8.82-14.28-8.82-25.31v-42.72h6.64c4.1,0,7.43,3.32,7.43,7.43v34.76c0,7.79,1.68,13.45,5.03,16.98,3.35,3.53,8.09,5.3,14.22,5.3s10.85-1.77,14.17-5.3c3.31-3.53,4.97-9.19,4.97-16.98v-34.76c0-4.1,3.32-7.43,7.43-7.43h6.42v42.72c0,11.03-2.94,19.47-8.82,25.31-5.88,5.84-13.97,8.76-24.28,8.76Z"/>
    <path class="cls-1" d="M802.22,645.44h-13.31l-.09-50.13-24.9,41.48h-6.28l-24.88-40.86v49.51h-13.4v-75.71h7.36c2.61,0,5.03,1.37,6.37,3.61l27.89,46.57,27.38-46.52c1.33-2.27,3.77-3.66,6.4-3.66h7.34l.11,75.71Z"/>
    <path class="cls-1" d="M890.26,641.08v4.36h-56.79v-75.71h55.27v4.36c0,4.1-3.32,7.43-7.43,7.43h-33.77v19.7h36.56v11.57h-36.56v20.87h35.29c4.1,0,7.43,3.32,7.43,7.43Z"/>
    <rect class="cls-1" x="547.06" y="626.95" width="5.94" height="0"/>
    <rect class="cls-1" x="561.11" y="627.18" width=".1" height="0"/>
    <g>
      <path class="cls-1" d="M506.22,600.22c-1.67-3.92-4.03-7.33-7.09-10.23-3.04-2.9-6.63-5.16-10.71-6.78-3.17-1.24-6.59-2.02-10.25-2.3-.07,0-.13,0-.19-.02-1.08-.09-2.17-.15-3.27-.15-1.75,0-3.45.13-5.12.39-2.86.37-5.59,1.08-8.17,2.08-4.12,1.61-7.7,3.88-10.77,6.78-3.04,2.9-5.4,6.31-7.09,10.23-1.67,3.92-2.51,8.21-2.51,12.88v.58c.04,2.13.24,4.18.63,6.15.09.5.2.98.32,1.47.06.26.13.54.22.8.09.39.2.78.33,1.15.22.67.46,1.34.72,1.99.09.26.17.52.28.76,1.69,3.92,4.05,7.33,7.09,10.23,3.06,2.9,6.65,5.16,10.77,6.78.93.35,1.86.67,2.82.95.63.19,1.28.35,1.95.52.17.04.35.09.54.11,2.51.58,5.14.87,7.85.87.58,0,1.15-.02,1.73-.04.06,0,.11,0,.15-.02,4.29-.13,8.26-.95,11.96-2.4,4.08-1.62,7.67-3.86,10.71-6.74,3.06-2.86,5.42-6.28,7.09-10.23.58-1.37,1.06-2.77,1.43-4.23.09-.3.17-.59.22-.91.09-.35.17-.71.24-1.06.43-1.95.63-3.97.63-6.05v-.67c0-4.68-.85-8.97-2.53-12.88ZM474.9,634.88c-12.03,0-21.8-9.75-21.8-21.8s9.77-21.8,21.8-21.8,21.81,9.75,21.81,21.8-9.77,21.8-21.81,21.8Z"/>
      <rect class="cls-1" x="450.26" y="569.51" width="49.3" height="4.75"/>
    </g>
  </g>
</svg>
